<svg width="1920" height="500" viewBox="0 0 1920 500" fill="none" xmlns="http://www.w3.org/2000/svg">
<rect width="1920" height="500" fill="white"/>
<path d="M1078 166.803L1024.59 220.212H1078V166.803Z" fill="#A67E5B"/>
<path d="M843 149H896.409V220.212H843V149Z" fill="#2D3040"/>
<path d="M843 227.333H896.409V287.864H843V227.333Z" fill="#2D3040"/>
<path d="M903.53 227.333H956.939V245.136H903.53V227.333Z" fill="#2D3040"/>
<path d="M903.53 262.939H921.333C940.997 262.939 956.939 278.881 956.939 298.545V316.348C956.939 336.013 940.997 351.954 921.333 351.954H903.53V262.939Z" fill="#2D3040"/>
<path d="M843 294.985H896.409V351.954H878.606C858.941 351.954 843 336.013 843 316.348V294.985Z" fill="#2D3040"/>
<path d="M964.061 262.939C964.061 243.275 980.002 227.333 999.667 227.333H1017.47V287.864H964.061V262.939Z" fill="#2D3040"/>
<path d="M1024.59 227.333H1078V259.379H1056.64C1038.94 259.379 1024.59 245.032 1024.59 227.333V227.333Z" fill="#2D3040"/>
<path d="M1024.59 273.621H1042.39C1062.06 273.621 1078 289.562 1078 309.227V316.348C1078 336.013 1062.06 351.954 1042.39 351.954H1024.59V273.621Z" fill="#2D3040"/>
<path d="M964.061 294.985H1017.47V351.954H999.667C980.002 351.954 964.061 336.013 964.061 316.348V294.985Z" fill="#2D3040"/>
<path d="M903.53 149H921.333C940.997 149 956.939 164.941 956.939 184.606V220.212H903.53V149Z" fill="#2D3040"/>
<path d="M964.061 149H981.864C1001.53 149 1017.47 164.941 1017.47 184.606V220.212H964.061V149Z" fill="#2D3040"/>
</svg>
