<svg width="66" height="57" viewBox="0 0 66 57" fill="none" xmlns="http://www.w3.org/2000/svg">
<path d="M66 5L51 20H66V5Z" fill="#A67E5B"/>
<rect width="15" height="20" fill="#2D3040"/>
<rect y="22" width="15" height="17" fill="#2D3040"/>
<rect x="17" y="22" width="15" height="5" fill="#2D3040"/>
<path d="M17 32H22C27.5228 32 32 36.4772 32 42V47C32 52.5228 27.5228 57 22 57H17V32Z" fill="#2D3040"/>
<path d="M0 41H15V57H10C4.47715 57 0 52.5228 0 47V41Z" fill="#2D3040"/>
<path d="M34 32C34 26.4772 38.4772 22 44 22H49V39H34V32Z" fill="#2D3040"/>
<path d="M51 22H66V31H60C55.0294 31 51 26.9706 51 22Z" fill="#2D3040"/>
<path d="M51 35H56C61.5228 35 66 39.4772 66 45V47C66 52.5228 61.5228 57 56 57H51V35Z" fill="#2D3040"/>
<path d="M34 41H49V57H44C38.4772 57 34 52.5228 34 47V41Z" fill="#2D3040"/>
<path d="M17 0H22C27.5228 0 32 4.47715 32 10V20H17V0Z" fill="#2D3040"/>
<path d="M34 0H39C44.5228 0 49 4.47715 49 10V20H34V0Z" fill="#2D3040"/>
</svg>
