<svg width="300" height="300" viewBox="0 0 300 300" fill="none" xmlns="http://www.w3.org/2000/svg">
<rect width="300" height="300" fill="white"/>
<path d="M202.872 258.296V264.344C202.872 264.64 202.956 264.86 203.124 265.004C203.292 265.148 203.508 265.22 203.772 265.22C204.004 265.22 204.204 265.18 204.372 265.1C204.54 265.02 204.692 264.912 204.828 264.776L205.164 265.58C204.98 265.748 204.76 265.88 204.504 265.976C204.256 266.072 203.968 266.12 203.64 266.12C203.336 266.12 203.052 266.068 202.788 265.964C202.524 265.852 202.312 265.68 202.152 265.448C202 265.208 201.92 264.896 201.912 264.512V258.56L202.872 258.296ZM205.056 260V260.828H200.712V260H205.056ZM206.483 266V260H207.263L207.395 260.984C207.563 260.616 207.807 260.34 208.127 260.156C208.455 259.972 208.851 259.88 209.315 259.88C209.419 259.88 209.531 259.888 209.651 259.904C209.779 259.92 209.887 259.952 209.975 260L209.807 260.876C209.719 260.844 209.623 260.82 209.519 260.804C209.415 260.788 209.267 260.78 209.075 260.78C208.827 260.78 208.575 260.852 208.319 260.996C208.071 261.14 207.863 261.36 207.695 261.656C207.527 261.944 207.443 262.312 207.443 262.76V266H206.483ZM211.862 258.848C211.646 258.848 211.47 258.784 211.334 258.656C211.206 258.52 211.142 258.344 211.142 258.128C211.142 257.912 211.206 257.74 211.334 257.612C211.47 257.476 211.646 257.408 211.862 257.408C212.078 257.408 212.25 257.476 212.378 257.612C212.514 257.74 212.582 257.912 212.582 258.128C212.582 258.344 212.514 258.52 212.378 258.656C212.25 258.784 212.078 258.848 211.862 258.848ZM212.342 260V266H211.382V260H212.342ZM218.073 262.124C218.073 261.676 217.953 261.332 217.713 261.092C217.473 260.844 217.133 260.72 216.693 260.72C216.277 260.72 215.925 260.812 215.637 260.996C215.349 261.172 215.137 261.46 215.001 261.86L214.221 261.38C214.381 260.932 214.677 260.572 215.109 260.3C215.541 260.02 216.077 259.88 216.717 259.88C217.149 259.88 217.541 259.956 217.893 260.108C218.245 260.252 218.521 260.476 218.721 260.78C218.929 261.076 219.033 261.46 219.033 261.932V264.836C219.033 265.124 219.185 265.268 219.489 265.268C219.641 265.268 219.789 265.248 219.933 265.208L219.885 265.964C219.725 266.044 219.517 266.084 219.261 266.084C219.029 266.084 218.821 266.04 218.637 265.952C218.453 265.864 218.309 265.732 218.205 265.556C218.101 265.372 218.049 265.144 218.049 264.872V264.752L218.289 264.788C218.193 265.1 218.029 265.356 217.797 265.556C217.565 265.748 217.305 265.892 217.017 265.988C216.729 266.076 216.445 266.12 216.165 266.12C215.813 266.12 215.485 266.06 215.181 265.94C214.877 265.82 214.633 265.64 214.449 265.4C214.273 265.152 214.185 264.848 214.185 264.488C214.185 264.04 214.333 263.672 214.629 263.384C214.933 263.088 215.353 262.888 215.889 262.784L218.265 262.316V263.108L216.333 263.504C215.941 263.584 215.649 263.696 215.457 263.84C215.265 263.984 215.169 264.184 215.169 264.44C215.169 264.688 215.265 264.892 215.457 265.052C215.657 265.204 215.937 265.28 216.297 265.28C216.529 265.28 216.749 265.252 216.957 265.196C217.173 265.132 217.365 265.04 217.533 264.92C217.701 264.792 217.833 264.636 217.929 264.452C218.025 264.26 218.073 264.036 218.073 263.78V262.124ZM221.366 266V260H222.206L222.29 261.344L222.134 261.212C222.262 260.892 222.434 260.636 222.65 260.444C222.866 260.244 223.114 260.1 223.394 260.012C223.682 259.924 223.978 259.88 224.282 259.88C224.714 259.88 225.106 259.964 225.458 260.132C225.81 260.292 226.09 260.54 226.298 260.876C226.514 261.212 226.622 261.64 226.622 262.16V266H225.662V262.496C225.662 261.832 225.518 261.372 225.23 261.116C224.95 260.852 224.602 260.72 224.186 260.72C223.898 260.72 223.61 260.788 223.322 260.924C223.034 261.06 222.794 261.28 222.602 261.584C222.418 261.888 222.326 262.296 222.326 262.808V266H221.366ZM233.848 258.896L234.064 259.748C234.056 259.748 234.044 259.748 234.028 259.748C234.012 259.748 233.996 259.748 233.98 259.748C233.588 259.748 233.284 259.828 233.068 259.988C232.86 260.14 232.756 260.388 232.756 260.732L232.168 260.432C232.168 260.12 232.24 259.848 232.384 259.616C232.528 259.384 232.724 259.208 232.972 259.088C233.22 258.96 233.492 258.896 233.788 258.896C233.796 258.896 233.804 258.896 233.812 258.896C233.828 258.896 233.84 258.896 233.848 258.896ZM232.024 265.232C232.592 265.232 233.036 265.364 233.356 265.628C233.676 265.884 233.836 266.228 233.836 266.66C233.836 267.052 233.704 267.392 233.44 267.68C233.184 267.968 232.836 268.188 232.396 268.34C231.964 268.5 231.476 268.58 230.932 268.58C229.988 268.58 229.28 268.42 228.808 268.1C228.344 267.78 228.112 267.396 228.112 266.948C228.112 266.628 228.216 266.34 228.424 266.084C228.64 265.836 229 265.696 229.504 265.664L229.42 265.844C229.148 265.772 228.916 265.652 228.724 265.484C228.54 265.308 228.448 265.056 228.448 264.728C228.448 264.4 228.568 264.12 228.808 263.888C229.056 263.648 229.42 263.5 229.9 263.444L230.536 263.768H230.416C230.024 263.808 229.744 263.908 229.576 264.068C229.416 264.22 229.336 264.388 229.336 264.572C229.336 264.796 229.416 264.964 229.576 265.076C229.744 265.18 229.976 265.232 230.272 265.232H232.024ZM230.92 267.776C231.384 267.776 231.764 267.728 232.06 267.632C232.364 267.536 232.588 267.412 232.732 267.26C232.876 267.108 232.948 266.944 232.948 266.768C232.948 266.552 232.86 266.38 232.684 266.252C232.516 266.124 232.208 266.06 231.76 266.06H229.912C229.656 266.06 229.44 266.124 229.264 266.252C229.088 266.388 229 266.572 229 266.804C229 267.1 229.168 267.336 229.504 267.512C229.848 267.688 230.32 267.776 230.92 267.776ZM230.836 259.88C231.316 259.88 231.74 259.968 232.108 260.144C232.484 260.312 232.776 260.548 232.984 260.852C233.192 261.156 233.296 261.508 233.296 261.908C233.296 262.3 233.192 262.652 232.984 262.964C232.776 263.268 232.484 263.508 232.108 263.684C231.74 263.852 231.316 263.936 230.836 263.936C230.044 263.936 229.436 263.748 229.012 263.372C228.588 262.988 228.376 262.5 228.376 261.908C228.376 261.508 228.48 261.156 228.688 260.852C228.904 260.548 229.196 260.312 229.564 260.144C229.932 259.968 230.356 259.88 230.836 259.88ZM230.836 260.66C230.42 260.66 230.072 260.776 229.792 261.008C229.512 261.232 229.372 261.532 229.372 261.908C229.372 262.276 229.512 262.576 229.792 262.808C230.072 263.04 230.42 263.156 230.836 263.156C231.252 263.156 231.6 263.04 231.88 262.808C232.16 262.576 232.3 262.276 232.3 261.908C232.3 261.532 232.16 261.232 231.88 261.008C231.6 260.776 231.252 260.66 230.836 260.66ZM236.094 257.24V264.476C236.094 264.78 236.15 264.992 236.262 265.112C236.374 265.224 236.554 265.28 236.802 265.28C236.962 265.28 237.094 265.268 237.198 265.244C237.302 265.22 237.442 265.176 237.618 265.112L237.462 265.952C237.334 266.008 237.194 266.048 237.042 266.072C236.89 266.104 236.734 266.12 236.574 266.12C236.086 266.12 235.722 265.988 235.482 265.724C235.25 265.46 235.134 265.056 235.134 264.512V257.24H236.094ZM241.358 266.12C240.79 266.12 240.282 265.996 239.834 265.748C239.394 265.5 239.05 265.144 238.802 264.68C238.554 264.208 238.43 263.648 238.43 263C238.43 262.352 238.554 261.796 238.802 261.332C239.05 260.86 239.39 260.5 239.822 260.252C240.254 260.004 240.746 259.88 241.298 259.88C241.858 259.88 242.334 260 242.726 260.24C243.126 260.48 243.43 260.808 243.638 261.224C243.846 261.632 243.95 262.092 243.95 262.604C243.95 262.74 243.946 262.864 243.938 262.976C243.93 263.088 243.918 263.188 243.902 263.276H239.054V262.424H243.482L242.99 262.52C242.99 261.944 242.83 261.5 242.51 261.188C242.198 260.876 241.786 260.72 241.274 260.72C240.882 260.72 240.542 260.812 240.254 260.996C239.974 261.172 239.754 261.432 239.594 261.776C239.442 262.112 239.366 262.52 239.366 263C239.366 263.472 239.446 263.88 239.606 264.224C239.766 264.568 239.99 264.832 240.278 265.016C240.574 265.192 240.926 265.28 241.334 265.28C241.774 265.28 242.13 265.196 242.402 265.028C242.682 264.86 242.906 264.632 243.074 264.344L243.83 264.788C243.678 265.06 243.482 265.296 243.242 265.496C243.01 265.696 242.734 265.852 242.414 265.964C242.102 266.068 241.75 266.12 241.358 266.12Z" fill="#A3BABF"/>
<path d="M62.5242 266V260H63.3042L63.4362 260.984C63.6042 260.616 63.8482 260.34 64.1682 260.156C64.4962 259.972 64.8922 259.88 65.3562 259.88C65.4602 259.88 65.5722 259.888 65.6922 259.904C65.8202 259.92 65.9282 259.952 66.0162 260L65.8482 260.876C65.7602 260.844 65.6642 260.82 65.5602 260.804C65.4562 260.788 65.3082 260.78 65.1162 260.78C64.8682 260.78 64.6162 260.852 64.3602 260.996C64.1122 261.14 63.9042 261.36 63.7362 261.656C63.5682 261.944 63.4842 262.312 63.4842 262.76V266H62.5242ZM67.9026 258.848C67.6866 258.848 67.5106 258.784 67.3746 258.656C67.2466 258.52 67.1826 258.344 67.1826 258.128C67.1826 257.912 67.2466 257.74 67.3746 257.612C67.5106 257.476 67.6866 257.408 67.9026 257.408C68.1186 257.408 68.2906 257.476 68.4186 257.612C68.5546 257.74 68.6226 257.912 68.6226 258.128C68.6226 258.344 68.5546 258.52 68.4186 258.656C68.2906 258.784 68.1186 258.848 67.9026 258.848ZM68.3826 260V266H67.4226V260H68.3826ZM75.6621 258.896L75.8781 259.748C75.8701 259.748 75.8581 259.748 75.8421 259.748C75.8261 259.748 75.8101 259.748 75.7941 259.748C75.4021 259.748 75.0981 259.828 74.8821 259.988C74.6741 260.14 74.5701 260.388 74.5701 260.732L73.9821 260.432C73.9821 260.12 74.0541 259.848 74.1981 259.616C74.3421 259.384 74.5381 259.208 74.7861 259.088C75.0341 258.96 75.3061 258.896 75.6021 258.896C75.6101 258.896 75.6181 258.896 75.6261 258.896C75.6421 258.896 75.6541 258.896 75.6621 258.896ZM73.8381 265.232C74.4061 265.232 74.8501 265.364 75.1701 265.628C75.4901 265.884 75.6501 266.228 75.6501 266.66C75.6501 267.052 75.5181 267.392 75.2541 267.68C74.9981 267.968 74.6501 268.188 74.2101 268.34C73.7781 268.5 73.2901 268.58 72.7461 268.58C71.8021 268.58 71.0941 268.42 70.6221 268.1C70.1581 267.78 69.9261 267.396 69.9261 266.948C69.9261 266.628 70.0301 266.34 70.2381 266.084C70.4541 265.836 70.8141 265.696 71.3181 265.664L71.2341 265.844C70.9621 265.772 70.7301 265.652 70.5381 265.484C70.3541 265.308 70.2621 265.056 70.2621 264.728C70.2621 264.4 70.3821 264.12 70.6221 263.888C70.8701 263.648 71.2341 263.5 71.7141 263.444L72.3501 263.768H72.2301C71.8381 263.808 71.5581 263.908 71.3901 264.068C71.2301 264.22 71.1501 264.388 71.1501 264.572C71.1501 264.796 71.2301 264.964 71.3901 265.076C71.5581 265.18 71.7901 265.232 72.0861 265.232H73.8381ZM72.7341 267.776C73.1981 267.776 73.5781 267.728 73.8741 267.632C74.1781 267.536 74.4021 267.412 74.5461 267.26C74.6901 267.108 74.7621 266.944 74.7621 266.768C74.7621 266.552 74.6741 266.38 74.4981 266.252C74.3301 266.124 74.0221 266.06 73.5741 266.06H71.7261C71.4701 266.06 71.2541 266.124 71.0781 266.252C70.9021 266.388 70.8141 266.572 70.8141 266.804C70.8141 267.1 70.9821 267.336 71.3181 267.512C71.6621 267.688 72.1341 267.776 72.7341 267.776ZM72.6501 259.88C73.1301 259.88 73.5541 259.968 73.9221 260.144C74.2981 260.312 74.5901 260.548 74.7981 260.852C75.0061 261.156 75.1101 261.508 75.1101 261.908C75.1101 262.3 75.0061 262.652 74.7981 262.964C74.5901 263.268 74.2981 263.508 73.9221 263.684C73.5541 263.852 73.1301 263.936 72.6501 263.936C71.8581 263.936 71.2501 263.748 70.8261 263.372C70.4021 262.988 70.1901 262.5 70.1901 261.908C70.1901 261.508 70.2941 261.156 70.5021 260.852C70.7181 260.548 71.0101 260.312 71.3781 260.144C71.7461 259.968 72.1701 259.88 72.6501 259.88ZM72.6501 260.66C72.2341 260.66 71.8861 260.776 71.6061 261.008C71.3261 261.232 71.1861 261.532 71.1861 261.908C71.1861 262.276 71.3261 262.576 71.6061 262.808C71.8861 263.04 72.2341 263.156 72.6501 263.156C73.0661 263.156 73.4141 263.04 73.6941 262.808C73.9741 262.576 74.1141 262.276 74.1141 261.908C74.1141 261.532 73.9741 261.232 73.6941 261.008C73.4141 260.776 73.0661 260.66 72.6501 260.66ZM77.4769 258.848C77.2609 258.848 77.0849 258.784 76.9489 258.656C76.8209 258.52 76.7569 258.344 76.7569 258.128C76.7569 257.912 76.8209 257.74 76.9489 257.612C77.0849 257.476 77.2609 257.408 77.4769 257.408C77.6929 257.408 77.8649 257.476 77.9929 257.612C78.1289 257.74 78.1969 257.912 78.1969 258.128C78.1969 258.344 78.1289 258.52 77.9929 258.656C77.8649 258.784 77.6929 258.848 77.4769 258.848ZM77.9569 260V266H76.9969V260H77.9569ZM82.5244 266.12C82.0284 266.12 81.5724 265.996 81.1564 265.748C80.7404 265.5 80.4084 265.144 80.1604 264.68C79.9124 264.208 79.7884 263.648 79.7884 263C79.7884 262.336 79.9204 261.772 80.1844 261.308C80.4484 260.844 80.7964 260.492 81.2284 260.252C81.6604 260.004 82.1244 259.88 82.6204 259.88C83.1164 259.88 83.5444 260.008 83.9044 260.264C84.2724 260.52 84.5164 260.86 84.6364 261.284L84.5164 261.368V257.24H85.4764V266H84.6364L84.5524 264.548L84.6844 264.476C84.6284 264.828 84.4924 265.128 84.2764 265.376C84.0684 265.616 83.8084 265.8 83.4964 265.928C83.1924 266.056 82.8684 266.12 82.5244 266.12ZM82.6204 265.28C83.0044 265.28 83.3364 265.184 83.6164 264.992C83.9044 264.8 84.1244 264.528 84.2764 264.176C84.4364 263.816 84.5164 263.396 84.5164 262.916C84.5164 262.46 84.4364 262.068 84.2764 261.74C84.1244 261.412 83.9084 261.16 83.6284 260.984C83.3564 260.808 83.0364 260.72 82.6684 260.72C82.0604 260.72 81.5884 260.928 81.2524 261.344C80.9164 261.76 80.7484 262.312 80.7484 263C80.7484 263.688 80.9124 264.24 81.2404 264.656C81.5684 265.072 82.0284 265.28 82.6204 265.28Z" fill="#A3BABF"/>
<path d="M135.28 257.24V264.476C135.28 264.78 135.336 264.992 135.448 265.112C135.56 265.224 135.74 265.28 135.988 265.28C136.148 265.28 136.28 265.268 136.384 265.244C136.488 265.22 136.628 265.176 136.804 265.112L136.648 265.952C136.52 266.008 136.38 266.048 136.228 266.072C136.076 266.104 135.92 266.12 135.76 266.12C135.272 266.12 134.908 265.988 134.668 265.724C134.436 265.46 134.32 265.056 134.32 264.512V257.24H135.28ZM138.516 258.848C138.3 258.848 138.124 258.784 137.988 258.656C137.86 258.52 137.796 258.344 137.796 258.128C137.796 257.912 137.86 257.74 137.988 257.612C138.124 257.476 138.3 257.408 138.516 257.408C138.732 257.408 138.904 257.476 139.032 257.612C139.168 257.74 139.236 257.912 139.236 258.128C139.236 258.344 139.168 258.52 139.032 258.656C138.904 258.784 138.732 258.848 138.516 258.848ZM138.996 260V266H138.036V260H138.996ZM145.555 268.52V264.356L145.723 264.476C145.667 264.828 145.531 265.128 145.315 265.376C145.107 265.616 144.847 265.8 144.535 265.928C144.231 266.056 143.907 266.12 143.563 266.12C143.067 266.12 142.611 265.996 142.195 265.748C141.779 265.5 141.447 265.144 141.199 264.68C140.951 264.208 140.827 263.648 140.827 263C140.827 262.336 140.959 261.772 141.223 261.308C141.487 260.844 141.835 260.492 142.267 260.252C142.699 260.004 143.163 259.88 143.659 259.88C143.995 259.88 144.307 259.944 144.595 260.072C144.883 260.192 145.127 260.368 145.327 260.6C145.535 260.824 145.671 261.092 145.735 261.404H145.591L145.675 260H146.515V268.52H145.555ZM143.659 265.28C144.035 265.28 144.363 265.188 144.643 265.004C144.931 264.812 145.155 264.544 145.315 264.2C145.475 263.848 145.555 263.436 145.555 262.964C145.555 262.484 145.475 262.08 145.315 261.752C145.163 261.416 144.947 261.16 144.667 260.984C144.387 260.808 144.059 260.72 143.683 260.72C143.091 260.72 142.627 260.928 142.291 261.344C141.955 261.76 141.787 262.312 141.787 263C141.787 263.688 141.951 264.24 142.279 264.656C142.607 265.072 143.067 265.28 143.659 265.28ZM150.919 266.12C150.535 266.12 150.171 266.048 149.827 265.904C149.491 265.76 149.215 265.528 148.999 265.208C148.791 264.88 148.687 264.456 148.687 263.936V260H149.647V263.684C149.647 264.292 149.779 264.712 150.043 264.944C150.307 265.168 150.679 265.28 151.159 265.28C151.383 265.28 151.603 265.244 151.819 265.172C152.035 265.092 152.227 264.972 152.395 264.812C152.571 264.644 152.707 264.432 152.803 264.176C152.907 263.92 152.959 263.616 152.959 263.264V260H153.919V266H153.079L153.019 265.088C152.811 265.448 152.527 265.712 152.167 265.88C151.815 266.04 151.399 266.12 150.919 266.12ZM156.633 258.848C156.417 258.848 156.241 258.784 156.105 258.656C155.977 258.52 155.913 258.344 155.913 258.128C155.913 257.912 155.977 257.74 156.105 257.612C156.241 257.476 156.417 257.408 156.633 257.408C156.849 257.408 157.021 257.476 157.149 257.612C157.285 257.74 157.353 257.912 157.353 258.128C157.353 258.344 157.285 258.52 157.149 258.656C157.021 258.784 156.849 258.848 156.633 258.848ZM157.113 260V266H156.153V260H157.113ZM161.681 266.12C161.185 266.12 160.729 265.996 160.313 265.748C159.897 265.5 159.565 265.144 159.317 264.68C159.069 264.208 158.945 263.648 158.945 263C158.945 262.336 159.077 261.772 159.341 261.308C159.605 260.844 159.953 260.492 160.385 260.252C160.817 260.004 161.281 259.88 161.777 259.88C162.273 259.88 162.701 260.008 163.061 260.264C163.429 260.52 163.673 260.86 163.793 261.284L163.673 261.368V257.24H164.633V266H163.793L163.709 264.548L163.841 264.476C163.785 264.828 163.649 265.128 163.433 265.376C163.225 265.616 162.965 265.8 162.653 265.928C162.349 266.056 162.025 266.12 161.681 266.12ZM161.777 265.28C162.161 265.28 162.493 265.184 162.773 264.992C163.061 264.8 163.281 264.528 163.433 264.176C163.593 263.816 163.673 263.396 163.673 262.916C163.673 262.46 163.593 262.068 163.433 261.74C163.281 261.412 163.065 261.16 162.785 260.984C162.513 260.808 162.193 260.72 161.825 260.72C161.217 260.72 160.745 260.928 160.409 261.344C160.073 261.76 159.905 262.312 159.905 263C159.905 263.688 160.069 264.24 160.397 264.656C160.725 265.072 161.185 265.28 161.777 265.28Z" fill="#A3BABF"/>
<path d="M209 250L233 226L233 250L209 250Z" fill="#A3BABF"/>
<rect x="67" y="227" width="15" height="24" fill="#A3BABF"/>
<path d="M142 226H147C152.523 226 157 230.477 157 236V250H142V226Z" fill="#A3BABF"/>
<path opacity="0.5" d="M110.86 245.25V239.64H105.25V237.36H110.86V231.75H113.14V237.36H118.75V239.64H113.14V245.25H110.86Z" fill="#A3BABF"/>
<path opacity="0.5" d="M182.86 245.25V239.64H177.25V237.36H182.86V231.75H185.14V237.36H190.75V239.64H185.14V245.25H182.86Z" fill="#A3BABF"/>
<path d="M232.5 62.5L195 100H232.5V62.5Z" fill="#A67E5B"/>
<path d="M67.5 50H105V100H67.5V50Z" fill="#2D3040"/>
<path d="M67.5 105H105V147.5H67.5V105Z" fill="#2D3040"/>
<path d="M110 105H147.5V117.5H110V105Z" fill="#2D3040"/>
<path d="M110 130H122.5C136.307 130 147.5 141.193 147.5 155V167.5C147.5 181.307 136.307 192.5 122.5 192.5H110V130Z" fill="#2D3040"/>
<path d="M67.5 152.5H105V192.5H92.5C78.6929 192.5 67.5 181.307 67.5 167.5V152.5Z" fill="#2D3040"/>
<path d="M152.5 130C152.5 116.193 163.693 105 177.5 105H190V147.5H152.5V130Z" fill="#2D3040"/>
<path d="M195 105H232.5V127.5H217.5C205.074 127.5 195 117.426 195 105V105Z" fill="#2D3040"/>
<path d="M195 137.5H207.5C221.307 137.5 232.5 148.693 232.5 162.5V167.5C232.5 181.307 221.307 192.5 207.5 192.5H195V137.5Z" fill="#2D3040"/>
<path d="M152.5 152.5H190V192.5H177.5C163.693 192.5 152.5 181.307 152.5 167.5V152.5Z" fill="#2D3040"/>
<path d="M110 50H122.5C136.307 50 147.5 61.1929 147.5 75V100H110V50Z" fill="#2D3040"/>
<path d="M152.5 50H165C178.807 50 190 61.1929 190 75V100H152.5V50Z" fill="#2D3040"/>
</svg>
