<svg width="271" height="57" viewBox="0 0 271 57" fill="none" xmlns="http://www.w3.org/2000/svg">
<path d="M66 5L51 20H66V5Z" fill="#A67E5B"/>
<rect width="15" height="20" fill="#2D3040"/>
<rect y="22" width="15" height="17" fill="#2D3040"/>
<rect x="17" y="22" width="15" height="5" fill="#2D3040"/>
<path d="M17 32H22C27.5228 32 32 36.4772 32 42V47C32 52.5228 27.5228 57 22 57H17V32Z" fill="#2D3040"/>
<path d="M0 41H15V57H10C4.47715 57 0 52.5228 0 47V41Z" fill="#2D3040"/>
<path d="M34 32C34 26.4772 38.4772 22 44 22H49V39H34V32Z" fill="#2D3040"/>
<path d="M51 22H66V31H60C55.0294 31 51 26.9706 51 22Z" fill="#2D3040"/>
<path d="M51 35H56C61.5228 35 66 39.4772 66 45V47C66 52.5228 61.5228 57 56 57H51V35Z" fill="#2D3040"/>
<path d="M34 41H49V57H44C38.4772 57 34 52.5228 34 47V41Z" fill="#2D3040"/>
<path d="M17 0H22C27.5228 0 32 4.47715 32 10V20H17V0Z" fill="#2D3040"/>
<path d="M34 0H39C44.5228 0 49 4.47715 49 10V20H34V0Z" fill="#2D3040"/>
<path d="M91.808 42.41C90.1133 42.41 88.5553 41.9863 87.134 41.139C85.7127 40.2917 84.5783 39.0753 83.731 37.49C82.8837 35.8773 82.46 33.964 82.46 31.75C82.46 29.4813 82.911 27.5543 83.813 25.969C84.715 24.3837 85.904 23.181 87.38 22.361C88.856 21.5137 90.4413 21.09 92.136 21.09C93.8307 21.09 95.293 21.5273 96.523 22.402C97.7803 23.2767 98.614 24.4383 99.024 25.887L98.614 26.174V12.07H101.894V42H99.024L98.737 37.039L99.188 36.793C98.9967 37.9957 98.532 39.0207 97.794 39.868C97.0833 40.688 96.195 41.3167 95.129 41.754C94.0903 42.1913 92.9833 42.41 91.808 42.41ZM92.136 39.54C93.448 39.54 94.5823 39.212 95.539 38.556C96.523 37.9 97.2747 36.9707 97.794 35.768C98.3407 34.538 98.614 33.103 98.614 31.463C98.614 29.905 98.3407 28.5657 97.794 27.445C97.2747 26.3243 96.5367 25.4633 95.58 24.862C94.6507 24.2607 93.5573 23.96 92.3 23.96C90.2227 23.96 88.61 24.6707 87.462 26.092C86.314 27.5133 85.74 29.3993 85.74 31.75C85.74 34.1007 86.3003 35.9867 87.421 37.408C88.5417 38.8293 90.1133 39.54 92.136 39.54ZM118.087 42.41C116.146 42.41 114.411 41.9863 112.88 41.139C111.377 40.2917 110.201 39.0753 109.354 37.49C108.507 35.8773 108.083 33.964 108.083 31.75C108.083 29.536 108.507 27.6363 109.354 26.051C110.201 24.4383 111.363 23.2083 112.839 22.361C114.315 21.5137 115.996 21.09 117.882 21.09C119.795 21.09 121.422 21.5 122.761 22.32C124.128 23.14 125.166 24.2607 125.877 25.682C126.588 27.076 126.943 28.6477 126.943 30.397C126.943 30.8617 126.929 31.2853 126.902 31.668C126.875 32.0507 126.834 32.3923 126.779 32.693H110.215V29.782H125.344L123.663 30.11C123.663 28.142 123.116 26.625 122.023 25.559C120.957 24.493 119.549 23.96 117.8 23.96C116.461 23.96 115.299 24.2743 114.315 24.903C113.358 25.5043 112.607 26.3927 112.06 27.568C111.541 28.716 111.281 30.11 111.281 31.75C111.281 33.3627 111.554 34.7567 112.101 35.932C112.648 37.1073 113.413 38.0093 114.397 38.638C115.408 39.2393 116.611 39.54 118.005 39.54C119.508 39.54 120.725 39.253 121.654 38.679C122.611 38.105 123.376 37.326 123.95 36.342L126.533 37.859C126.014 38.7883 125.344 39.5947 124.524 40.278C123.731 40.9613 122.788 41.4943 121.695 41.877C120.629 42.2323 119.426 42.41 118.087 42.41ZM140.561 42.41C138.566 42.41 136.721 41.9863 135.026 41.139C133.359 40.2917 132.074 39.089 131.172 37.531L133.96 35.522C134.561 36.7793 135.436 37.7633 136.584 38.474C137.759 39.1847 139.167 39.54 140.807 39.54C142.256 39.54 143.39 39.2667 144.21 38.72C145.03 38.146 145.44 37.408 145.44 36.506C145.44 35.932 145.249 35.4127 144.866 34.948C144.511 34.456 143.814 34.1007 142.775 33.882L137.855 32.857C135.86 32.447 134.425 31.7637 133.55 30.807C132.703 29.8503 132.279 28.6613 132.279 27.24C132.279 26.1193 132.593 25.0943 133.222 24.165C133.878 23.2357 134.794 22.4977 135.969 21.951C137.172 21.377 138.579 21.09 140.192 21.09C142.215 21.09 143.923 21.4863 145.317 22.279C146.711 23.0717 147.75 24.1923 148.433 25.641L145.686 27.445C145.221 26.2423 144.47 25.3677 143.431 24.821C142.392 24.247 141.313 23.96 140.192 23.96C139.208 23.96 138.361 24.0967 137.65 24.37C136.967 24.6433 136.434 25.026 136.051 25.518C135.696 25.9827 135.518 26.5157 135.518 27.117C135.518 27.7183 135.723 28.2787 136.133 28.798C136.543 29.29 137.308 29.6453 138.429 29.864L143.554 30.93C145.467 31.3127 146.807 31.9413 147.572 32.816C148.337 33.6907 148.72 34.7567 148.72 36.014C148.72 37.2987 148.378 38.433 147.695 39.417C147.012 40.3737 146.055 41.1117 144.825 41.631C143.595 42.1503 142.174 42.41 140.561 42.41ZM156.442 17.564C155.704 17.564 155.103 17.3453 154.638 16.908C154.201 16.4433 153.982 15.842 153.982 15.104C153.982 14.366 154.201 13.7783 154.638 13.341C155.103 12.8763 155.704 12.644 156.442 12.644C157.18 12.644 157.768 12.8763 158.205 13.341C158.67 13.7783 158.902 14.366 158.902 15.104C158.902 15.842 158.67 16.4433 158.205 16.908C157.768 17.3453 157.18 17.564 156.442 17.564ZM158.082 21.5V42H154.802V21.5H158.082ZM182.954 17.728L183.692 20.639C183.665 20.639 183.624 20.639 183.569 20.639C183.514 20.639 183.46 20.639 183.405 20.639C182.066 20.639 181.027 20.9123 180.289 21.459C179.578 21.9783 179.223 22.8257 179.223 24.001L177.214 22.976C177.214 21.91 177.46 20.9807 177.952 20.188C178.444 19.3953 179.114 18.794 179.961 18.384C180.808 17.9467 181.738 17.728 182.749 17.728C182.776 17.728 182.804 17.728 182.831 17.728C182.886 17.728 182.927 17.728 182.954 17.728ZM176.722 39.376C178.663 39.376 180.18 39.827 181.273 40.729C182.366 41.6037 182.913 42.779 182.913 44.255C182.913 45.5943 182.462 46.756 181.56 47.74C180.685 48.724 179.496 49.4757 177.993 49.995C176.517 50.5417 174.85 50.815 172.991 50.815C169.766 50.815 167.347 50.2683 165.734 49.175C164.149 48.0817 163.356 46.7697 163.356 45.239C163.356 44.1457 163.711 43.1617 164.422 42.287C165.16 41.4397 166.39 40.9613 168.112 40.852L167.825 41.467C166.896 41.221 166.103 40.811 165.447 40.237C164.818 39.6357 164.504 38.7747 164.504 37.654C164.504 36.5333 164.914 35.5767 165.734 34.784C166.581 33.964 167.825 33.4583 169.465 33.267L171.638 34.374H171.228C169.889 34.5107 168.932 34.8523 168.358 35.399C167.811 35.9183 167.538 36.4923 167.538 37.121C167.538 37.8863 167.811 38.4603 168.358 38.843C168.932 39.1983 169.725 39.376 170.736 39.376H176.722ZM172.95 48.068C174.535 48.068 175.834 47.904 176.845 47.576C177.884 47.248 178.649 46.8243 179.141 46.305C179.633 45.7857 179.879 45.2253 179.879 44.624C179.879 43.886 179.578 43.2983 178.977 42.861C178.403 42.4237 177.351 42.205 175.82 42.205H169.506C168.631 42.205 167.893 42.4237 167.292 42.861C166.691 43.3257 166.39 43.9543 166.39 44.747C166.39 45.7583 166.964 46.5647 168.112 47.166C169.287 47.7673 170.9 48.068 172.95 48.068ZM172.663 21.09C174.303 21.09 175.752 21.3907 177.009 21.992C178.294 22.566 179.291 23.3723 180.002 24.411C180.713 25.4497 181.068 26.6523 181.068 28.019C181.068 29.3583 180.713 30.561 180.002 31.627C179.291 32.6657 178.294 33.4857 177.009 34.087C175.752 34.661 174.303 34.948 172.663 34.948C169.957 34.948 167.88 34.3057 166.431 33.021C164.982 31.709 164.258 30.0417 164.258 28.019C164.258 26.6523 164.613 25.4497 165.324 24.411C166.062 23.3723 167.06 22.566 168.317 21.992C169.574 21.3907 171.023 21.09 172.663 21.09ZM172.663 23.755C171.242 23.755 170.053 24.1513 169.096 24.944C168.139 25.7093 167.661 26.7343 167.661 28.019C167.661 29.2763 168.139 30.3013 169.096 31.094C170.053 31.8867 171.242 32.283 172.663 32.283C174.084 32.283 175.273 31.8867 176.23 31.094C177.187 30.3013 177.665 29.2763 177.665 28.019C177.665 26.7343 177.187 25.7093 176.23 24.944C175.273 24.1513 174.084 23.755 172.663 23.755ZM187.514 42V21.5H190.384L190.671 26.092L190.138 25.641C190.576 24.5477 191.163 23.673 191.901 23.017C192.639 22.3337 193.487 21.8417 194.443 21.541C195.427 21.2403 196.439 21.09 197.477 21.09C198.953 21.09 200.293 21.377 201.495 21.951C202.698 22.4977 203.655 23.345 204.365 24.493C205.103 25.641 205.472 27.1033 205.472 28.88V42H202.192V30.028C202.192 27.7593 201.7 26.1877 200.716 25.313C199.76 24.411 198.571 23.96 197.149 23.96C196.165 23.96 195.181 24.1923 194.197 24.657C193.213 25.1217 192.393 25.8733 191.737 26.912C191.109 27.9507 190.794 29.3447 190.794 31.094V42H187.514ZM216.015 12.07V36.793C216.015 37.8317 216.206 38.556 216.589 38.966C216.972 39.3487 217.587 39.54 218.434 39.54C218.981 39.54 219.432 39.499 219.787 39.417C220.142 39.335 220.621 39.1847 221.222 38.966L220.689 41.836C220.252 42.0273 219.773 42.164 219.254 42.246C218.735 42.3553 218.202 42.41 217.655 42.41C215.988 42.41 214.744 41.959 213.924 41.057C213.131 40.155 212.735 38.7747 212.735 36.916V12.07H216.015ZM237.403 28.757C237.403 27.2263 236.993 26.051 236.173 25.231C235.353 24.3837 234.191 23.96 232.688 23.96C231.267 23.96 230.064 24.2743 229.08 24.903C228.096 25.5043 227.372 26.4883 226.907 27.855L224.242 26.215C224.789 24.6843 225.8 23.4543 227.276 22.525C228.752 21.5683 230.583 21.09 232.77 21.09C234.246 21.09 235.585 21.3497 236.788 21.869C237.991 22.361 238.934 23.1263 239.617 24.165C240.328 25.1763 240.683 26.4883 240.683 28.101V38.023C240.683 39.007 241.202 39.499 242.241 39.499C242.76 39.499 243.266 39.4307 243.758 39.294L243.594 41.877C243.047 42.1503 242.337 42.287 241.462 42.287C240.669 42.287 239.959 42.1367 239.33 41.836C238.701 41.5353 238.209 41.0843 237.854 40.483C237.499 39.8543 237.321 39.0753 237.321 38.146V37.736L238.141 37.859C237.813 38.925 237.253 39.7997 236.46 40.483C235.667 41.139 234.779 41.631 233.795 41.959C232.811 42.2597 231.841 42.41 230.884 42.41C229.681 42.41 228.561 42.205 227.522 41.795C226.483 41.385 225.65 40.77 225.021 39.95C224.42 39.1027 224.119 38.064 224.119 36.834C224.119 35.3033 224.625 34.046 225.636 33.062C226.675 32.0507 228.11 31.3673 229.941 31.012L238.059 29.413V32.119L231.458 33.472C230.119 33.7453 229.121 34.128 228.465 34.62C227.809 35.112 227.481 35.7953 227.481 36.67C227.481 37.5173 227.809 38.2143 228.465 38.761C229.148 39.2803 230.105 39.54 231.335 39.54C232.128 39.54 232.879 39.4443 233.59 39.253C234.328 39.0343 234.984 38.72 235.558 38.31C236.132 37.8727 236.583 37.3397 236.911 36.711C237.239 36.055 237.403 35.2897 237.403 34.415V28.757ZM258.699 42.41C257.551 42.41 256.485 42.205 255.501 41.795C254.517 41.385 253.669 40.811 252.959 40.073C252.248 39.335 251.715 38.5013 251.36 37.572L251.811 36.998L251.524 42H248.654V12.07H251.934V26.133L251.524 25.518C252.07 24.2333 252.986 23.181 254.271 22.361C255.583 21.5137 257.072 21.09 258.74 21.09C260.434 21.09 261.992 21.5137 263.414 22.361C264.835 23.2083 265.969 24.4247 266.817 26.01C267.664 27.5953 268.088 29.5087 268.088 31.75C268.088 33.964 267.65 35.8773 266.776 37.49C265.928 39.0753 264.794 40.2917 263.373 41.139C261.951 41.9863 260.393 42.41 258.699 42.41ZM258.371 39.54C260.393 39.54 261.965 38.8293 263.086 37.408C264.234 35.9867 264.808 34.1007 264.808 31.75C264.808 29.3993 264.247 27.5133 263.127 26.092C262.006 24.6707 260.434 23.96 258.412 23.96C257.127 23.96 255.993 24.288 255.009 24.944C254.052 25.6 253.3 26.5157 252.754 27.691C252.207 28.8663 251.934 30.2467 251.934 31.832C251.934 33.39 252.193 34.7567 252.713 35.932C253.259 37.08 254.011 37.9683 254.968 38.597C255.952 39.2257 257.086 39.54 258.371 39.54Z" fill="#2D3040"/>
</svg>
