<svg width="324" height="120" viewBox="0 0 324 120" fill="none" xmlns="http://www.w3.org/2000/svg">
<rect width="324" height="120" fill="white"/>
<path d="M93 37L78 52H93V37Z" fill="#A67E5B"/>
<rect x="27" y="32" width="15" height="20" fill="#2D3040"/>
<rect x="27" y="54" width="15" height="17" fill="#2D3040"/>
<rect x="44" y="54" width="15" height="5" fill="#2D3040"/>
<path d="M44 64H49C54.5228 64 59 68.4772 59 74V79C59 84.5228 54.5228 89 49 89H44V64Z" fill="#2D3040"/>
<path d="M27 73H42V89H37C31.4772 89 27 84.5228 27 79V73Z" fill="#2D3040"/>
<path d="M61 64C61 58.4772 65.4772 54 71 54H76V71H61V64Z" fill="#2D3040"/>
<path d="M78 54H93V63H87C82.0294 63 78 58.9706 78 54V54Z" fill="#2D3040"/>
<path d="M78 67H83C88.5228 67 93 71.4772 93 77V79C93 84.5228 88.5228 89 83 89H78V67Z" fill="#2D3040"/>
<path d="M61 73H76V89H71C65.4772 89 61 84.5228 61 79V73Z" fill="#2D3040"/>
<path d="M44 32H49C54.5228 32 59 36.4772 59 42V52H44V32Z" fill="#2D3040"/>
<path d="M61 32H66C71.5228 32 76 36.4772 76 42V52H61V32Z" fill="#2D3040"/>
<path d="M118.808 74.41C117.113 74.41 115.555 73.9863 114.134 73.139C112.713 72.2917 111.578 71.0753 110.731 69.49C109.884 67.8773 109.46 65.964 109.46 63.75C109.46 61.4813 109.911 59.5543 110.813 57.969C111.715 56.3837 112.904 55.181 114.38 54.361C115.856 53.5137 117.441 53.09 119.136 53.09C120.831 53.09 122.293 53.5273 123.523 54.402C124.78 55.2767 125.614 56.4383 126.024 57.887L125.614 58.174V44.07H128.894V74H126.024L125.737 69.039L126.188 68.793C125.997 69.9957 125.532 71.0207 124.794 71.868C124.083 72.688 123.195 73.3167 122.129 73.754C121.09 74.1913 119.983 74.41 118.808 74.41ZM119.136 71.54C120.448 71.54 121.582 71.212 122.539 70.556C123.523 69.9 124.275 68.9707 124.794 67.768C125.341 66.538 125.614 65.103 125.614 63.463C125.614 61.905 125.341 60.5657 124.794 59.445C124.275 58.3243 123.537 57.4633 122.58 56.862C121.651 56.2607 120.557 55.96 119.3 55.96C117.223 55.96 115.61 56.6707 114.462 58.092C113.314 59.5133 112.74 61.3993 112.74 63.75C112.74 66.1007 113.3 67.9867 114.421 69.408C115.542 70.8293 117.113 71.54 119.136 71.54ZM145.087 74.41C143.146 74.41 141.411 73.9863 139.88 73.139C138.377 72.2917 137.201 71.0753 136.354 69.49C135.507 67.8773 135.083 65.964 135.083 63.75C135.083 61.536 135.507 59.6363 136.354 58.051C137.201 56.4383 138.363 55.2083 139.839 54.361C141.315 53.5137 142.996 53.09 144.882 53.09C146.795 53.09 148.422 53.5 149.761 54.32C151.128 55.14 152.166 56.2607 152.877 57.682C153.588 59.076 153.943 60.6477 153.943 62.397C153.943 62.8617 153.929 63.2853 153.902 63.668C153.875 64.0507 153.834 64.3923 153.779 64.693H137.215V61.782H152.344L150.663 62.11C150.663 60.142 150.116 58.625 149.023 57.559C147.957 56.493 146.549 55.96 144.8 55.96C143.461 55.96 142.299 56.2743 141.315 56.903C140.358 57.5043 139.607 58.3927 139.06 59.568C138.541 60.716 138.281 62.11 138.281 63.75C138.281 65.3627 138.554 66.7567 139.101 67.932C139.648 69.1073 140.413 70.0093 141.397 70.638C142.408 71.2393 143.611 71.54 145.005 71.54C146.508 71.54 147.725 71.253 148.654 70.679C149.611 70.105 150.376 69.326 150.95 68.342L153.533 69.859C153.014 70.7883 152.344 71.5947 151.524 72.278C150.731 72.9613 149.788 73.4943 148.695 73.877C147.629 74.2323 146.426 74.41 145.087 74.41ZM167.561 74.41C165.566 74.41 163.721 73.9863 162.026 73.139C160.359 72.2917 159.074 71.089 158.172 69.531L160.96 67.522C161.561 68.7793 162.436 69.7633 163.584 70.474C164.759 71.1847 166.167 71.54 167.807 71.54C169.256 71.54 170.39 71.2667 171.21 70.72C172.03 70.146 172.44 69.408 172.44 68.506C172.44 67.932 172.249 67.4127 171.866 66.948C171.511 66.456 170.814 66.1007 169.775 65.882L164.855 64.857C162.86 64.447 161.425 63.7637 160.55 62.807C159.703 61.8503 159.279 60.6613 159.279 59.24C159.279 58.1193 159.593 57.0943 160.222 56.165C160.878 55.2357 161.794 54.4977 162.969 53.951C164.172 53.377 165.579 53.09 167.192 53.09C169.215 53.09 170.923 53.4863 172.317 54.279C173.711 55.0717 174.75 56.1923 175.433 57.641L172.686 59.445C172.221 58.2423 171.47 57.3677 170.431 56.821C169.392 56.247 168.313 55.96 167.192 55.96C166.208 55.96 165.361 56.0967 164.65 56.37C163.967 56.6433 163.434 57.026 163.051 57.518C162.696 57.9827 162.518 58.5157 162.518 59.117C162.518 59.7183 162.723 60.2787 163.133 60.798C163.543 61.29 164.308 61.6453 165.429 61.864L170.554 62.93C172.467 63.3127 173.807 63.9413 174.572 64.816C175.337 65.6907 175.72 66.7567 175.72 68.014C175.72 69.2987 175.378 70.433 174.695 71.417C174.012 72.3737 173.055 73.1117 171.825 73.631C170.595 74.1503 169.174 74.41 167.561 74.41ZM183.442 49.564C182.704 49.564 182.103 49.3453 181.638 48.908C181.201 48.4433 180.982 47.842 180.982 47.104C180.982 46.366 181.201 45.7783 181.638 45.341C182.103 44.8763 182.704 44.644 183.442 44.644C184.18 44.644 184.768 44.8763 185.205 45.341C185.67 45.7783 185.902 46.366 185.902 47.104C185.902 47.842 185.67 48.4433 185.205 48.908C184.768 49.3453 184.18 49.564 183.442 49.564ZM185.082 53.5V74H181.802V53.5H185.082ZM209.954 49.728L210.692 52.639C210.665 52.639 210.624 52.639 210.569 52.639C210.514 52.639 210.46 52.639 210.405 52.639C209.066 52.639 208.027 52.9123 207.289 53.459C206.578 53.9783 206.223 54.8257 206.223 56.001L204.214 54.976C204.214 53.91 204.46 52.9807 204.952 52.188C205.444 51.3953 206.114 50.794 206.961 50.384C207.808 49.9467 208.738 49.728 209.749 49.728C209.776 49.728 209.804 49.728 209.831 49.728C209.886 49.728 209.927 49.728 209.954 49.728ZM203.722 71.376C205.663 71.376 207.18 71.827 208.273 72.729C209.366 73.6037 209.913 74.779 209.913 76.255C209.913 77.5943 209.462 78.756 208.56 79.74C207.685 80.724 206.496 81.4757 204.993 81.995C203.517 82.5417 201.85 82.815 199.991 82.815C196.766 82.815 194.347 82.2683 192.734 81.175C191.149 80.0817 190.356 78.7697 190.356 77.239C190.356 76.1457 190.711 75.1617 191.422 74.287C192.16 73.4397 193.39 72.9613 195.112 72.852L194.825 73.467C193.896 73.221 193.103 72.811 192.447 72.237C191.818 71.6357 191.504 70.7747 191.504 69.654C191.504 68.5333 191.914 67.5767 192.734 66.784C193.581 65.964 194.825 65.4583 196.465 65.267L198.638 66.374H198.228C196.889 66.5107 195.932 66.8523 195.358 67.399C194.811 67.9183 194.538 68.4923 194.538 69.121C194.538 69.8863 194.811 70.4603 195.358 70.843C195.932 71.1983 196.725 71.376 197.736 71.376H203.722ZM199.95 80.068C201.535 80.068 202.834 79.904 203.845 79.576C204.884 79.248 205.649 78.8243 206.141 78.305C206.633 77.7857 206.879 77.2253 206.879 76.624C206.879 75.886 206.578 75.2983 205.977 74.861C205.403 74.4237 204.351 74.205 202.82 74.205H196.506C195.631 74.205 194.893 74.4237 194.292 74.861C193.691 75.3257 193.39 75.9543 193.39 76.747C193.39 77.7583 193.964 78.5647 195.112 79.166C196.287 79.7673 197.9 80.068 199.95 80.068ZM199.663 53.09C201.303 53.09 202.752 53.3907 204.009 53.992C205.294 54.566 206.291 55.3723 207.002 56.411C207.713 57.4497 208.068 58.6523 208.068 60.019C208.068 61.3583 207.713 62.561 207.002 63.627C206.291 64.6657 205.294 65.4857 204.009 66.087C202.752 66.661 201.303 66.948 199.663 66.948C196.957 66.948 194.88 66.3057 193.431 65.021C191.982 63.709 191.258 62.0417 191.258 60.019C191.258 58.6523 191.613 57.4497 192.324 56.411C193.062 55.3723 194.06 54.566 195.317 53.992C196.574 53.3907 198.023 53.09 199.663 53.09ZM199.663 55.755C198.242 55.755 197.053 56.1513 196.096 56.944C195.139 57.7093 194.661 58.7343 194.661 60.019C194.661 61.2763 195.139 62.3013 196.096 63.094C197.053 63.8867 198.242 64.283 199.663 64.283C201.084 64.283 202.273 63.8867 203.23 63.094C204.187 62.3013 204.665 61.2763 204.665 60.019C204.665 58.7343 204.187 57.7093 203.23 56.944C202.273 56.1513 201.084 55.755 199.663 55.755ZM214.514 74V53.5H217.384L217.671 58.092L217.138 57.641C217.576 56.5477 218.163 55.673 218.901 55.017C219.639 54.3337 220.487 53.8417 221.443 53.541C222.427 53.2403 223.439 53.09 224.477 53.09C225.953 53.09 227.293 53.377 228.495 53.951C229.698 54.4977 230.655 55.345 231.365 56.493C232.103 57.641 232.472 59.1033 232.472 60.88V74H229.192V62.028C229.192 59.7593 228.7 58.1877 227.716 57.313C226.76 56.411 225.571 55.96 224.149 55.96C223.165 55.96 222.181 56.1923 221.197 56.657C220.213 57.1217 219.393 57.8733 218.737 58.912C218.109 59.9507 217.794 61.3447 217.794 63.094V74H214.514ZM243.015 44.07V68.793C243.015 69.8317 243.206 70.556 243.589 70.966C243.972 71.3487 244.587 71.54 245.434 71.54C245.981 71.54 246.432 71.499 246.787 71.417C247.142 71.335 247.621 71.1847 248.222 70.966L247.689 73.836C247.252 74.0273 246.773 74.164 246.254 74.246C245.735 74.3553 245.202 74.41 244.655 74.41C242.988 74.41 241.744 73.959 240.924 73.057C240.131 72.155 239.735 70.7747 239.735 68.916V44.07H243.015ZM264.403 60.757C264.403 59.2263 263.993 58.051 263.173 57.231C262.353 56.3837 261.191 55.96 259.688 55.96C258.267 55.96 257.064 56.2743 256.08 56.903C255.096 57.5043 254.372 58.4883 253.907 59.855L251.242 58.215C251.789 56.6843 252.8 55.4543 254.276 54.525C255.752 53.5683 257.583 53.09 259.77 53.09C261.246 53.09 262.585 53.3497 263.788 53.869C264.991 54.361 265.934 55.1263 266.617 56.165C267.328 57.1763 267.683 58.4883 267.683 60.101V70.023C267.683 71.007 268.202 71.499 269.241 71.499C269.76 71.499 270.266 71.4307 270.758 71.294L270.594 73.877C270.047 74.1503 269.337 74.287 268.462 74.287C267.669 74.287 266.959 74.1367 266.33 73.836C265.701 73.5353 265.209 73.0843 264.854 72.483C264.499 71.8543 264.321 71.0753 264.321 70.146V69.736L265.141 69.859C264.813 70.925 264.253 71.7997 263.46 72.483C262.667 73.139 261.779 73.631 260.795 73.959C259.811 74.2597 258.841 74.41 257.884 74.41C256.681 74.41 255.561 74.205 254.522 73.795C253.483 73.385 252.65 72.77 252.021 71.95C251.42 71.1027 251.119 70.064 251.119 68.834C251.119 67.3033 251.625 66.046 252.636 65.062C253.675 64.0507 255.11 63.3673 256.941 63.012L265.059 61.413V64.119L258.458 65.472C257.119 65.7453 256.121 66.128 255.465 66.62C254.809 67.112 254.481 67.7953 254.481 68.67C254.481 69.5173 254.809 70.2143 255.465 70.761C256.148 71.2803 257.105 71.54 258.335 71.54C259.128 71.54 259.879 71.4443 260.59 71.253C261.328 71.0343 261.984 70.72 262.558 70.31C263.132 69.8727 263.583 69.3397 263.911 68.711C264.239 68.055 264.403 67.2897 264.403 66.415V60.757ZM285.699 74.41C284.551 74.41 283.485 74.205 282.501 73.795C281.517 73.385 280.669 72.811 279.959 72.073C279.248 71.335 278.715 70.5013 278.36 69.572L278.811 68.998L278.524 74H275.654V44.07H278.934V58.133L278.524 57.518C279.07 56.2333 279.986 55.181 281.271 54.361C282.583 53.5137 284.072 53.09 285.74 53.09C287.434 53.09 288.992 53.5137 290.414 54.361C291.835 55.2083 292.969 56.4247 293.817 58.01C294.664 59.5953 295.088 61.5087 295.088 63.75C295.088 65.964 294.65 67.8773 293.776 69.49C292.928 71.0753 291.794 72.2917 290.373 73.139C288.951 73.9863 287.393 74.41 285.699 74.41ZM285.371 71.54C287.393 71.54 288.965 70.8293 290.086 69.408C291.234 67.9867 291.808 66.1007 291.808 63.75C291.808 61.3993 291.247 59.5133 290.127 58.092C289.006 56.6707 287.434 55.96 285.412 55.96C284.127 55.96 282.993 56.288 282.009 56.944C281.052 57.6 280.3 58.5157 279.754 59.691C279.207 60.8663 278.934 62.2467 278.934 63.832C278.934 65.39 279.193 66.7567 279.713 67.932C280.259 69.08 281.011 69.9683 281.968 70.597C282.952 71.2257 284.086 71.54 285.371 71.54Z" fill="#2D3040"/>
</svg>
